<?xml version="1.0" encoding="utf-8"?>
<!-- Svg Vector Icons : http://www.onlinewebfonts.com/icon -->
<!DOCTYPE svg PUBLIC "-//W3C//DTD SVG 1.1//EN" "http://www.w3.org/Graphics/SVG/1.1/DTD/svg11.dtd">
<svg version="1.1" xmlns="http://www.w3.org/2000/svg" xmlns:xlink="http://www.w3.org/1999/xlink" x="0px" y="0px" viewBox="0 0 256 256" enable-background="new 0 0 256 256" xml:space="preserve">
<metadata> Svg Vector Icons : http://www.onlinewebfonts.com/icon </metadata>
<g><g><path fill="#000000" d="M187.1,205.9c-0.5-56.5-0.4-113,0-169.5c0.1-9.6-3.6-15.6-12.1-18.5c-31.2-10.5-62.5-10.7-93.7,0c-8.5,2.9-12.5,8.6-12.3,18.3c0.6,28.1,0.2,56.1,0.2,84.2c0,28.4,0.4,56.9-0.2,85.3c-0.2,9.2,3.6,13.8,11.7,15.5c31.6,6.9,63.2,7.1,94.8,0C183.4,219.5,187.2,215.2,187.1,205.9z M128.6,35.7c9.1,0.3,16.9,8.3,16.8,17.2c-0.1,9.6-8.3,17.4-18,17c-9.3-0.3-16.9-8-16.9-17.1C110.6,43.5,119,35.4,128.6,35.7z M113.9,141.1c4-8.1,8.1-16.2,12.7-25.4c5.6,8.7,12,17.3,16.8,26.6c4.5,8.6,5,17.9-4,24.8c-7.7,5.8-15.9,5.5-23-0.9C108.2,158.8,109.4,150,113.9,141.1z"/><path fill="#000000" d="M152.5,232.4c-16.5,0-32.8,0-49.7,0C115.7,250.7,142.5,250.4,152.5,232.4z"/><path fill="#000000" d="M128,60.9c1,0,1.9-0.8,1.9-1.9c0-0.2,0-0.4-0.1-0.6L128,38.8l-1.8,19.7c0,0.2-0.1,0.4-0.1,0.6C126.1,60.1,126.9,60.9,128,60.9z"/><path fill="#000000" d="M128.1,129.5l-7,18.3l8.7,1.3l-4.5,17.7l11.8-21.1l-10.2-2.1L128.1,129.5z"/></g></g>
</svg>