<?xml version="1.0" encoding="utf-8"?>
<!-- Svg Vector Icons : http://www.onlinewebfonts.com/icon -->
<!DOCTYPE svg PUBLIC "-//W3C//DTD SVG 1.1//EN" "http://www.w3.org/Graphics/SVG/1.1/DTD/svg11.dtd">
<svg version="1.1" xmlns="http://www.w3.org/2000/svg" xmlns:xlink="http://www.w3.org/1999/xlink" x="0px" y="0px" viewBox="0 0 256 256" enable-background="new 0 0 256 256" xml:space="preserve">
<metadata> Svg Vector Icons : http://www.onlinewebfonts.com/icon </metadata>
<g><g><path fill="#000000" d="M213.4,246H42.6C24.6,246,10,231.4,10,213.4V50.7c0-17.9,14.6-32.6,32.6-32.6h8.1c4.9,0,8.1,3.3,8.1,8.1s-3.3,8.1-8.1,8.1h-8.1c-9,0-16.3,7.3-16.3,16.3v162.8c0,9,7.3,16.3,16.3,16.3h170.9c9,0,16.3-7.3,16.3-16.3V50.7c0-9-7.3-16.3-16.3-16.3h-8.2c-4.1,0-8.1-3.3-8.1-8.1s4.1-8.1,8.1-8.1h8.1c17.9,0,32.6,14.6,32.6,32.6v162.8C246,231.4,231.4,246,213.4,246z M210.5,83.2H45.9c-3.8,0-6.3-3.3-6.3-8.1s2.5-8.1,6.3-8.1h164.6c3.2,0,6.3,3.3,6.3,8.1S213.6,83.2,210.5,83.2z M75.1,42.6c-4.9,0-8.1-3.3-8.1-8.1V18.1c0-4.9,3.3-8.1,8.1-8.1s8.1,3.3,8.1,8.1v16.3C83.2,39.3,80,42.6,75.1,42.6L75.1,42.6z M180.9,42.6c-4.1,0-8.1-3.3-8.1-8.1V18.1c0-4.9,4.1-8.1,8.1-8.1c4.1,0,8.1,3.3,8.1,8.1v16.3C189,39.3,185,42.6,180.9,42.6L180.9,42.6z M156.5,34.4h-57c-4.9,0-8.1-3.3-8.1-8.1s3.3-8.1,8.1-8.1h57c4.1,0,8.1,3.3,8.1,8.1S160.6,34.4,156.5,34.4L156.5,34.4z M189,140.2H67c-4.9,0-8.1-4.1-8.1-8.1c0-4.1,3.3-8.1,8.1-8.1H189c4.1,0,8.1,4.1,8.1,8.1C197.2,136.1,193.1,140.2,189,140.2L189,140.2z M189,189H67c-4.9,0-8.1-4.1-8.1-8.1c0-4.1,3.3-8.1,8.1-8.1H189c4.1,0,8.1,4.1,8.1,8.1C197.2,185,193.1,189,189,189L189,189z"/></g></g>
</svg>