<?xml version="1.0" encoding="UTF-8" standalone="no"?>
<!DOCTYPE svg PUBLIC "-//W3C//DTD SVG 1.1//EN" "http://www.w3.org/Graphics/SVG/1.1/DTD/svg11.dtd">
<!-- Created with Vectornator (http://vectornator.io/) -->
<svg height="100%" stroke-miterlimit="10"
    style="fill-rule:nonzero;clip-rule:evenodd;stroke-linecap:round;stroke-linejoin:round;" version="1.1"
    viewBox="150 -4.47035e-06 300 300" width="100%" xml:space="preserve" xmlns="http://www.w3.org/2000/svg"
    xmlns:vectornator="http://vectornator.io" xmlns:xlink="http://www.w3.org/1999/xlink">
    <defs />
    <clipPath id="ArtboardFrame">
        <rect height="300" width="300" x="150" y="-4.47035e-06" />
    </clipPath>
    <g clip-path="url(#ArtboardFrame)" id="Layer" vectornator:layerName="Layer">
        <g opacity="1" vectornator:layerName="g">
            <path
                d="M150 150L150 291.891C150 296.369 153.631 300 158.109 300L300 300L441.891 300C446.369 300 450 296.369 450 291.891L450 150L450 8.10897C450 3.63051 446.369-4.47035e-06 441.891-4.47035e-06L300-4.47035e-06L158.109-4.47035e-06C153.631-4.47035e-06 150 3.63051 150 8.10897L150 150ZM349.6 70.9C364.6 75.4 376.6 87.7 380.4 102.5C383.4 113.9 381.9 119 375.4 119C371.1 119 369.4 116.4 368.7 108.9C367.4 94.7 356.6 84.3 340.2 81.5C332.3 80.1 330 78.5 330 74.6C330 68.9 338 67.3 349.6 70.9ZM347.9 91C358.1 96.2 365.4 111.6 360.3 117.2C359.4 118.3 357.3 119 355.3 119C352.4 119 351.7 118.5 350.4 115.5C349.7 113.6 349 111.2 349 110.1C349 106.4 344.4 102.3 338.7 101C335.9 100.3 332.7 99.1 331.8 98.2C329.4 96.2 329.5 92.5 332.1 89.9C333.9 88.1 334.9 87.9 339.3 88.4C342 88.8 345.9 89.9 347.9 91ZM299 101.7C302.4 104 347 142.6 349.8 145.7C352 148.1 352 148.2 352 183.5C352 202.9 351.7 219.6 351.4 220.5C349.7 224.9 347.9 225 294.1 225L246.1 225C244.164 225 242.292 224.308 240.822 223.048L240.3 222.6L240.3 222.6C238.521 221.075 237.489 218.855 237.469 216.512L237.2 185C237 155.2 237.2 149.4 238.4 147.5C240.1 145 287 103.2 290.4 101.3C293.4 99.6 296.1 99.7 299 101.7ZM339.1 108.1C344.3 110.8 342.6 119 336.8 119C330.6 119 327.8 113.1 332.2 109C334.7 106.7 336.2 106.5 339.1 108.1Z"
                fill="#000000" fill-rule="nonzero" opacity="1" stroke="none" vectornator:layerName="path" />
            <path
                d="M279.3 130.3C271.2 137.6 261.6 145.9 258.2 148.9L252 154.3L252 182.4L252 210.5L294.5 210.5L337 210.5L337 182.4L337 154.3L330.3 148.4C326.5 145.1 316.9 136.7 308.9 129.7L294.2 117.1L279.3 130.3ZM306.3 158L315 165.5L315 178.2L315 191L295 191L275 191L275 178.1L275 165.2L284.6 156.6C292.9 149.2 294.4 148.2 295.9 149.3C296.9 149.9 301.6 153.9 306.3 158Z"
                fill="#000000" fill-rule="nonzero" opacity="1" stroke="none" vectornator:layerName="path" />
        </g>
    </g>
</svg>