<?xml version="1.0" encoding="UTF-8" standalone="no"?>
<!DOCTYPE svg PUBLIC "-//W3C//DTD SVG 1.1//EN" "http://www.w3.org/Graphics/SVG/1.1/DTD/svg11.dtd">
<!-- Created with Vectornator (http://vectornator.io/) -->
<svg height="100%" stroke-miterlimit="10"
    style="fill-rule:nonzero;clip-rule:evenodd;stroke-linecap:round;stroke-linejoin:round;" version="1.1"
    viewBox="237.132 68.9504 144.75 156.05" width="100%" xml:space="preserve" xmlns="http://www.w3.org/2000/svg"
    xmlns:vectornator="http://vectornator.io" xmlns:xlink="http://www.w3.org/1999/xlink">
    <defs />
    <clipPath id="ArtboardFrame">
        <rect height="156.05" width="144.75" x="237.132" y="68.9504" />
    </clipPath>
    <g clip-path="url(#ArtboardFrame)" id="Layer" vectornator:layerName="Layer">
        <g opacity="1" vectornator:layerName="g">
            <path
                d="M331.7 70.8C330.7 71.8 330 73.5 330 74.6C330 78.5 332.3 80.1 340.2 81.5C356.6 84.3 367.4 94.7 368.7 108.9C369.4 116.4 371.1 119 375.4 119C381.9 119 383.4 113.9 380.4 102.5C377.7 91.8 370.8 82.4 361.1 76.2C350.8 69.6 335.3 66.8 331.7 70.8Z"
                fill="#000000" fill-rule="nonzero" opacity="1" stroke="none" vectornator:layerName="path" />
            <path
                d="M332.1 89.9C329.5 92.5 329.4 96.2 331.8 98.2C332.7 99.1 335.9 100.3 338.7 101C344.4 102.3 349 106.4 349 110.1C349 111.2 349.7 113.6 350.4 115.5C351.7 118.5 352.4 119 355.3 119C361.9 119 363.9 112.7 359.9 104C356 95.3 348.6 89.7 339.3 88.4C334.9 87.9 333.9 88.1 332.1 89.9Z"
                fill="#000000" fill-rule="nonzero" opacity="1" stroke="none" vectornator:layerName="path" />
            <path
                d="M290.4 101.3C287 103.2 240.1 145 238.4 147.5C237.2 149.4 237 155.2 237.2 185L237.5 220.2L240.3 222.6L243.1 225L294.1 225C347.9 225 349.7 224.9 351.4 220.5C351.7 219.6 352 202.9 352 183.5C352 148.2 352 148.1 349.8 145.7C347 142.6 302.4 104 299 101.7C296.1 99.7 293.4 99.6 290.4 101.3ZM330.3 148.4L337 154.3L337 182.4L337 210.5L294.5 210.5L252 210.5L252 182.4L252 154.3L258.2 148.9C261.6 145.9 271.2 137.6 279.3 130.3L294.2 117.1L308.9 129.7C316.9 136.7 326.5 145.1 330.3 148.4Z"
                fill="#000000" fill-rule="nonzero" opacity="1" stroke="none" vectornator:layerName="path" />
            <path
                d="M284.6 156.6L275 165.2L275 178.1L275 191L295 191L315 191L315 178.2L315 165.5L306.3 158C301.6 153.9 296.9 149.9 295.9 149.3C294.4 148.2 292.9 149.2 284.6 156.6Z"
                fill="#000000" fill-rule="nonzero" opacity="1" stroke="none" vectornator:layerName="path" />
            <path
                d="M332.2 109C327.8 113.1 330.6 119 336.8 119C342.6 119 344.3 110.8 339.1 108.1C336.2 106.5 334.7 106.7 332.2 109Z"
                fill="#000000" fill-rule="nonzero" opacity="1" stroke="none" vectornator:layerName="path" />
        </g>
    </g>
</svg>